# xmcd
# 
# Track frame offsets:
#     180
#     19285
#     35024
#     49118
#     78548
#     95249
#     111243
#     130474
#     151440
#     168756
# 
# Disc length: 2524
# 
# Revision: 0
# Processed by: cddbd v1.5.2PL0 Copyright (c) Steve Scherf et al.
# Submitted via: fre:ac v1.0.31
# 
DISCID=8609da0a
DTITLE=jamie watling - different trails
DYEAR=1995
DGENRE=country
TTITLE0=son of the factory
TTITLE1=draw the line
TTITLE2=until the money's gone
TTITLE3=love tonight or stay forever
TTITLE4=surfin' on tequila
TTITLE5=livin' the blues
TTITLE6=farmer john bock
TTITLE7=drop fear
TTITLE8=work like hell
TTITLE9=haven't given up on love
EXTD=
EXTT0=
EXTT1=
EXTT2=
EXTT3=
EXTT4=
EXTT5=
EXTT6=
EXTT7=
EXTT8=
EXTT9=
PLAYORDER=
